<?xml version="1.0" encoding="utf-8"?>
<!-- Generator: Adobe Illustrator 20.0.0, SVG Export Plug-In . SVG Version: 6.00 Build 0)  -->
<svg version="1.1" id="Layer_1" xmlns="http://www.w3.org/2000/svg" xmlns:xlink="http://www.w3.org/1999/xlink" x="0px" y="0px"
	 viewBox="0 0 1400 900" style="enable-background:new 0 0 1400 900;" xml:space="preserve">
<style type="text/css">
	.st0{fill:none;}
	.st1{fill:#D1D3D4;stroke:#FFFFFF;stroke-width:2;stroke-miterlimit:1;}
	.st2{fill:#3D90CE;}
	.st3{fill:none;stroke:#3D90CE;stroke-width:2;stroke-linecap:round;stroke-miterlimit:1;}
	.st4{fill:#FFFFFF;stroke:#A7A9AC;stroke-width:2;stroke-linecap:round;stroke-linejoin:round;stroke-miterlimit:10;}
	.st5{fill:#D1D3D4;}
	.st6{fill:#3D90CE;stroke:#7BBAE1;stroke-width:2;stroke-linecap:round;stroke-linejoin:round;stroke-miterlimit:10;}
	.st7{fill:none;stroke:#7BBAE1;stroke-width:2;stroke-linecap:round;stroke-linejoin:round;stroke-miterlimit:10;}
</style>
<rect class="st0" width="1400" height="900"/>
<g id="Background">
	<rect x="-110" y="-20" class="st0" width="1620" height="940"/>
</g>
<g>
	<g>
		<g>
			<polygon class="st1" points="635.6,721.4 700.1,758.7 700.1,833.2 635.6,796 			"/>
			<polygon class="st1" points="764.5,721.4 699.9,758.7 699.9,833.2 764.5,796 			"/>
			<polygon class="st1" points="635.6,721.4 700.1,684.1 764.7,721.4 700.1,758.7 			"/>
		</g>
		<g>
			<polygon class="st1" points="776.6,640.9 841.1,678.2 841.1,752.7 776.6,715.4 			"/>
			<polygon class="st1" points="905.5,640.9 841,678.2 841,752.7 905.5,715.4 			"/>
			<polygon class="st1" points="776.6,640.9 841.1,603.6 905.7,640.9 841.1,678.2 			"/>
		</g>
		<g>
			<polygon class="st1" points="917.7,560.4 982.3,597.6 982.3,672.2 917.7,634.9 			"/>
			<polygon class="st1" points="1046.7,560.4 982.1,597.6 982.1,672.2 1046.7,634.9 			"/>
			<polygon class="st1" points="917.7,560.4 982.3,523.1 1046.8,560.4 982.3,597.6 			"/>
		</g>
	</g>
	<g>
		<polygon class="st1" points="635.7,399.3 700.3,436.6 700.3,511.1 635.7,473.9 		"/>
		<polygon class="st1" points="764.7,399.3 700.1,436.6 700.1,511.1 764.7,473.9 		"/>
		<polygon class="st1" points="635.7,399.3 700.3,362 764.8,399.3 700.3,436.6 		"/>
	</g>
	<g>
		<polygon class="st1" points="776.7,479.8 841.3,517.1 841.3,591.7 776.7,554.4 		"/>
		<polygon class="st1" points="905.7,479.8 841.1,517.1 841.1,591.7 905.7,554.4 		"/>
		<polygon class="st1" points="776.7,479.8 841.3,442.6 905.8,479.8 841.3,517.1 		"/>
	</g>
	<g>
		<polygon class="st1" points="494.6,479.8 559.2,517.1 559.2,591.7 494.6,554.4 		"/>
		<polygon class="st1" points="623.6,479.8 559,517.1 559,591.7 623.6,554.4 		"/>
		<polygon class="st1" points="494.6,479.8 559.2,442.6 623.8,479.8 559.2,517.1 		"/>
	</g>
	<g>
		<polygon class="st1" points="635.6,560.4 700.2,597.6 700.2,672.2 635.6,634.9 		"/>
		<polygon class="st1" points="764.6,560.4 700,597.6 700,672.2 764.6,634.9 		"/>
		<polygon class="st1" points="635.6,560.4 700.2,523.1 764.8,560.4 700.2,597.6 		"/>
	</g>
	<g>
		<polygon class="st1" points="353.6,560.4 418.1,597.6 418.1,672.2 353.6,634.9 		"/>
		<polygon class="st1" points="482.5,560.4 418,597.6 418,672.2 482.5,634.9 		"/>
		<polygon class="st1" points="353.6,560.4 418.1,523.1 482.7,560.4 418.1,597.6 		"/>
	</g>
	<g>
		<polygon class="st1" points="494.6,640.9 559.1,678.2 559.1,752.7 494.6,715.4 		"/>
		<polygon class="st1" points="623.5,640.9 559,678.2 559,752.7 623.5,715.4 		"/>
		<polygon class="st1" points="494.6,640.9 559.1,603.6 623.7,640.9 559.1,678.2 		"/>
	</g>
	<g>
		<polygon class="st2" points="407.9,560 417.4,554.5 427,560 417.4,565.5 		"/>
		<g>
			<polygon class="st2" points="549.6,640.4 559.2,634.9 568.7,640.4 559.2,646 			"/>
			<polygon class="st2" points="549.6,479.8 559.2,474.3 568.7,479.8 559.2,485.4 			"/>
		</g>
		<polygon class="st2" points="972.4,560 982,554.5 991.5,560 982,565.5 		"/>
		<g>
			<polygon class="st2" points="831.7,640.7 841.3,635.1 850.8,640.7 841.3,646.2 			"/>
			<polygon class="st2" points="831.7,480.1 841.3,474.6 850.8,480.1 841.3,485.6 			"/>
		</g>
		<g>
			<polygon class="st2" points="690.5,721.2 700.1,715.7 709.6,721.2 700.1,726.7 			"/>
			<polygon class="st2" points="690.5,560 700.1,554.5 709.6,560 700.1,565.5 			"/>
			<polygon class="st2" points="690.5,399.3 700.1,393.8 709.6,399.3 700.1,404.8 			"/>
		</g>
	</g>
	<g>
		<line class="st3" x1="417.9" y1="458.5" x2="417.7" y2="560.4"/>
		<line class="st3" x1="559.1" y1="539" x2="558.9" y2="640.9"/>
		<line class="st3" x1="841.2" y1="539" x2="841" y2="640.9"/>
		<line class="st3" x1="700.2" y1="619.6" x2="700" y2="721.4"/>
		<line class="st3" x1="982.2" y1="458.5" x2="982" y2="560.4"/>
		<line class="st3" x1="700.1" y1="457.8" x2="699.8" y2="559.7"/>
		<line class="st3" x1="559.3" y1="378" x2="559.1" y2="479.8"/>
		<line class="st3" x1="841.6" y1="378.7" x2="841.4" y2="480.6"/>
		<line class="st3" x1="700.5" y1="297.5" x2="700.3" y2="399.3"/>
	</g>
	<polygon class="st4" points="326.8,441.9 700.2,655.6 700.2,673.3 326.8,459.6 	"/>
	<polygon class="st4" points="326.8,441.9 700.4,227.2 1073.8,440.8 700.2,655.6 	"/>
	<polygon class="st4" points="1073.8,441.9 700.5,655.6 700.5,673.3 1073.9,459.6 	"/>
	<polygon class="st5" points="705.9,401.3 841,323.7 976.1,401.3 841,478.8 	"/>
	<polygon class="st5" points="776.7,522 982.4,404.2 1046.9,441.5 841.3,559.3 	"/>
	<polygon class="st5" points="564.9,319.5 700,242 835,319.5 699.9,397.1 	"/>
	<polygon class="st5" points="494.7,441.5 629.8,364 694.4,401.3 559.3,478.8 	"/>
	<polygon class="st5" points="635.7,441.5 700.3,404.2 764.8,441.5 700.3,478.8 	"/>
	<polygon class="st5" points="706.2,481.8 770.8,444.5 835.3,481.8 770.8,519.1 	"/>
	<polygon class="st5" points="623.9,361 559.3,323.7 418.5,404.4 418.2,404.2 353.7,441.5 488.7,519.1 553.3,481.8 483.8,441.9 	"/>
	<polygon class="st5" points="494.7,522 559.2,484.8 623.8,522 559.2,559.3 	"/>
	<polygon class="st5" points="635.6,602.6 700.2,565.3 764.8,602.6 700.2,639.8 	"/>
	<g>
		<path class="st5" d="M629.7,525L629.7,525L629.7,525c-0.1,0.1-0.1,0.1-0.2,0.1l0,0l0,0l0,0c0,0,0,0-0.1,0l0,0l0,0l0,0l0,0l0,0l0,0
			l0,0l0,0l0,0l0,0l0,0l0,0l0,0l0,0l0,0l0,0l0,0l0,0l0,0l0,0l0,0l0,0l0,0l0,0l0,0l0,0l0,0l0,0l0,0l0,0l0,0l0,0l0,0l0,0l0,0l0,0l0,0
			l0,0l0,0l0,0l0,0l0,0l0,0l0,0l0,0l0,0l0,0l0,0l0,0l0,0l0,0l0,0l0,0l0,0l0,0l0,0l0,0l0,0l0,0l0,0l0,0l0,0h-0.1l0,0l-4.4,2.6l2,3.5
			l5.2-3L629.7,525L629.7,525L629.7,525z M619.3,531l-3.5,2l0,0l0,0l0,0l0,0l0,0l0,0l0,0l0,0l0,0l0,0l0,0l0,0l0,0l0,0c0,0,0,0-0.1,0
			l0,0c-0.9,0.5-1.5,0.9-1.5,0.9l2,3.5l5.2-3L619.3,531L619.3,531z M608.9,537l-5.2,3l2,3.5l5.2-3L608.9,537L608.9,537z M598.5,543
			l-3.8,2.2l0,0l0,0l0,0l0,0c0,0,0,0-0.1,0l0,0l0,0l0,0c-0.7,0.4-1.2,0.7-1.2,0.7l2,3.5l5.2-3L598.5,543L598.5,543z M588.1,549
			l-5.2,3l2,3.5l5.2-3L588.1,549L588.1,549z M577.7,555l-5.2,3l2,3.5l5.2-3L577.7,555L577.7,555z M569.1,560l-4,2.3l0,0l4,2.3
			l0.2-0.1l-0.7-1.3l1.5-2.6L569.1,560L569.1,560z M575.3,563.6l-2,3.5l5.2,3l2-3.5L575.3,563.6L575.3,563.6z M585.7,569.6l-2,3.5
			l5.2,3l2-3.5L585.7,569.6L585.7,569.6z M596.1,575.6l-2,3.5l5.2,3l2-3.5L596.1,575.6L596.1,575.6z M606.5,581.6l-2,3.5l2.5,1.4
			l0,0l0,0l0,0l0,0l0,0l0,0c1.3,0.8,2.7,1.5,2.7,1.5l2-3.5L606.5,581.6L606.5,581.6z M616.9,587.6l-2,3.5l5.2,3l2-3.5L616.9,587.6
			L616.9,587.6z M627.3,593.6l-2,3.5l3.5,2l0,0l0,0l0,0h0.1l0,0l0,0l0,0l0,0l0,0l0,0l0,0l0,0l0,0l0,0l0,0l0,0l0,0l0,0l0,0l0,0l0,0
			l0,0l0,0l0,0c0,0,0,0,0.1,0l0,0c0,0,0,0,0.1,0l0,0c0.1,0,0.2,0.1,0.2,0.1l0,0c0.1,0.1,0.2,0.1,0.2,0.1l0,0l0.8-0.4l-0.3-0.4
			l1.5-2.6l0,0l0,0l0,0L627.3,593.6L627.3,593.6z M638.9,589.7l-5.2,3l2,3.5l5.2-3L638.9,589.7L638.9,589.7z M649.3,583.7l-5.2,3
			l2,3.5l5.2-3L649.3,583.7L649.3,583.7z M659.7,577.7l-5.2,3l2,3.5c0,0,1-0.6,2.1-1.2l0,0l0,0l0,0l0,0l0,0l0,0l0,0l0,0l0,0l0,0l0,0
			l0,0l0,0l0,0l0,0l0,0l3-1.7L659.7,577.7L659.7,577.7z M670.1,571.7l-5.2,3l2,3.5l5.2-3L670.1,571.7L670.1,571.7z M680.4,565.7
			l-5.2,3l2,3.5l5.2-3L680.4,565.7L680.4,565.7z M685.3,557.1l-2,3.5l3,1.7l-0.6,0.4l2,3.5l5.2-3l-1.4-2.5L685.3,557.1L685.3,557.1z
			 M674.9,551.1l-2,3.5l5.2,3l2-3.5L674.9,551.1L674.9,551.1z M664.5,545.1l-2,3.5l5.2,3l2-3.5L664.5,545.1L664.5,545.1z
			 M654.1,539.1l-2,3.5l5.2,3l2-3.5L654.1,539.1L654.1,539.1z M643.7,533.1l-2,3.5l5.2,3l2-3.5c0,0-3.3-1.9-4.6-2.7l0,0l0,0l0,0l0,0
			l0,0l0,0l0,0l0,0l0,0l0,0l0,0l0,0l0,0l0,0l0,0l0,0l0,0l0,0l0,0l0,0l0,0l0,0l0,0l0,0l0,0l0,0l0,0l0,0l0,0l0,0l0,0l0,0L643.7,533.1
			L643.7,533.1z M633.3,527.1l-2,3.5l5.2,3l2-3.5L633.3,527.1L633.3,527.1z"/>
	</g>
	<g>
		<path class="st5" d="M770.8,525C770.8,525,770.8,525.1,770.8,525L770.8,525c-0.1,0.1-0.1,0.1-0.2,0.1l0,0l0,0l0,0c0,0,0,0-0.1,0
			l0,0l0,0l0,0l0,0l0,0c0,0,0,0-0.1,0l0,0l0,0l0,0l0,0l0,0l0,0l0,0l0,0l0,0l0,0l0,0l0,0l0,0l0,0l0,0l0,0l0,0l0,0l0,0l0,0l0,0l0,0
			l0,0l0,0l0,0l0,0l0,0l0,0l0,0l0,0l0,0l0,0l0,0l0,0l0,0l0,0l0,0l0,0l0,0l0,0l-0.1,0.1l0,0l0,0l0,0l0,0l0,0l-4.3,2.5l2,3.5l5.2-3
			L770.8,525L770.8,525L770.8,525z M760.4,531l-2.8,1.6l0,0h-0.1l0,0l0,0l0,0l0,0l0,0l0,0c-1.2,0.7-2.3,1.3-2.3,1.3l2,3.5l5.2-3
			L760.4,531L760.4,531z M750,537c0,0-1.2,0.7-2.5,1.4l0,0l0,0l0,0l0,0l0,0l0,0l0,0l0,0l0,0l0,0l0,0l0,0l0,0l0,0l0,0l0,0l0,0l0,0
			l0,0l0,0l0,0l0,0l0,0l0,0l0,0l0,0l0,0l0,0l0,0l0,0l0,0l0,0l0,0l0,0l0,0l0,0l0,0l0,0l0,0l0,0l0,0l0,0l0,0l0,0l0,0l0,0l0,0l0,0l0,0
			l0,0l0,0l0,0l0,0l0,0l0,0l0,0l0,0l0,0l0,0l0,0l0,0l0,0l0,0l0,0h-0.1l0,0l-2.1,1.2l2,3.5l5.2-3L750,537L750,537z M739.6,543l-5.2,3
			l2,3.5l5.2-3L739.6,543L739.6,543z M729.2,549c0,0-3.2,1.8-4.6,2.6l0,0c-0.1,0-0.1,0.1-0.2,0.1l0,0l0,0l0,0l0,0l0,0c0,0,0,0-0.1,0
			l0,0l0,0l0,0l0,0l0,0l0,0l0,0l0,0l0,0l0,0l0,0l0,0l0,0l0,0l0,0l0,0l0,0l0,0l0,0l0,0l0,0l0,0l0,0l0,0l0,0l0,0l0,0l0,0l0,0l0,0l0,0
			l0,0l0,0l0,0l0,0l0,0l0,0l0,0l0,0l0,0l0,0l0,0l0,0l0,0l0,0l0,0l0,0l0,0l0,0l0,0l0,0l0,0l0,0l0,0l0,0l0,0l0,0l0,0l0,0l0,0l0,0l0,0
			l0,0l0,0l0,0l0,0l0,0l0,0l0,0l0,0l0,0l0,0l0,0l0,0l0,0l0,0l0,0l0,0l0,0l0,0l0,0l0,0l0,0l0,0l0,0l0,0l0,0l0,0l0,0l0,0l0,0l0,0l0,0
			l0,0l0,0l0,0l0,0l0,0l0,0l0,0l0,0l0,0l0,0l0,0l0,0l0,0l0,0l0,0l0,0l0,0l0,0l0,0l0,0l0,0l0,0l0,0l0,0l0,0l0,0l0,0l0,0l0,0l0,0l0,0
			l0,0l0,0l0,0l0,0l0,0l0,0l0,0l0,0l0,0l2,3.5l5.2-3L729.2,549L729.2,549z M718.8,555l-5.2,3l2,3.5l5.2-3L718.8,555L718.8,555z
			 M710.2,560l-4,2.3l0,0l0,0l0,0l0,0l0,0l0,0l0,0l0,0l4,2.3l0.2-0.1l-0.7-1.3l1.5-2.6L710.2,560L710.2,560z M716.4,563.6l-2,3.5
			l5.2,3l2-3.5L716.4,563.6L716.4,563.6z M726.8,569.6l-2,3.5l5.2,3l2-3.5L726.8,569.6L726.8,569.6z M737.2,575.6l-2,3.5l0.8,0.5
			l0,0l0,0l0,0l0,0l0,0l0,0l0,0l0,0l0,0l0,0l0,0l0,0l0,0l0,0l0,0l0,0l0,0l0,0c1.5,0.9,4.2,2.4,4.2,2.4l2-3.5L737.2,575.6
			L737.2,575.6z M747.6,581.6l-2,3.5l0.7,0.4l0,0h0.1l0,0l0,0l0,0l0,0l0,0l0,0l0,0l0,0l0,0l0,0l0,0l0,0l0,0l0,0l0,0l0,0l0,0l0,0l0,0
			l0,0l0,0l0,0l0,0l0,0l0,0l0,0l0,0l0,0c1.5,0.9,4.3,2.5,4.3,2.5l2-3.5L747.6,581.6L747.6,581.6z M758,587.6l-2,3.5l5.2,3l2-3.5
			L758,587.6L758,587.6z M768.4,593.6l-2,3.5l4.2,2.5l0,0l0,0l0,0l0,0l0,0l0,0l0,0l0,0l0,0l0,0l0,0l0,0l0,0l0,0l0,0l0,0l0,0l0,0l0,0
			l0,0l0.8-0.4l-0.3-0.4l1.5-2.6l0,0l0,0l0,0L768.4,593.6L768.4,593.6z M780,589.7l-5.2,3l2,3.5l5.2-3L780,589.7L780,589.7z
			 M790.3,583.7l-5.2,3l2,3.5l5.2-3L790.3,583.7L790.3,583.7z M800.7,577.7l-5.2,3l2,3.5l5.2-3L800.7,577.7L800.7,577.7z
			 M811.1,571.7l-5.2,3l2,3.5l5.2-3L811.1,571.7L811.1,571.7z M821.5,565.7l-5.2,3l2,3.5l0,0l0,0l0,0l0,0l0,0l0,0l0,0l0,0l0,0l0,0
			l0,0l0,0l0,0l0,0l0,0l0,0l0,0l0,0l0,0l0,0l0,0l0,0l0,0l0,0l0,0l0,0l0,0l0,0l0,0l0,0l0,0l0,0l0,0l0,0l0,0l0,0l0,0l0,0l0,0l0,0l0,0
			l0,0l0,0l0,0l0,0l0,0l0,0l0,0l0,0l0,0l0,0l0,0l0,0l0,0l0,0l0,0l0,0l0,0l0,0l0,0l0,0l0,0l0,0l0,0l0,0l0,0l0,0l0,0l0,0l0,0l0,0l0,0
			l0,0l0,0l0,0l0,0l0,0l0,0l0,0l0,0l0,0l0,0l0,0l0,0l0,0l0,0l0,0l0,0l0,0l0,0l0,0l0,0l0,0l0,0l0,0l0,0l0,0l0,0h0.1l0,0l0,0l0,0
			l0.1-0.1l0,0l0,0l0,0l0,0l0,0l4.8-2.8L821.5,565.7L821.5,565.7z M826.4,557.1l-2,3.5l3,1.7l-0.6,0.4l2,3.5l5.2-3l-1.4-2.5
			L826.4,557.1L826.4,557.1z M816,551.1l-2,3.5l5.2,3l2-3.5L816,551.1L816,551.1z M805.6,545.1l-2,3.5l5.2,3l2-3.5l-3.5-2l0,0l0,0
			l0,0l0,0l0,0l0,0l0,0l0,0l0,0l0,0C806.3,545.6,805.6,545.1,805.6,545.1L805.6,545.1z M795.2,539.1l-2,3.5l5.2,3l2-3.5L795.2,539.1
			L795.2,539.1z M784.8,533.1l-2,3.5l5.2,3l2-3.5L784.8,533.1L784.8,533.1z M774.4,527.1l-2,3.5l5.2,3l2-3.5L774.4,527.1
			L774.4,527.1z"/>
	</g>
	<g>
		<path class="st5" d="M700.5,484.8C700.5,484.8,700.4,484.8,700.5,484.8L700.5,484.8c-0.1,0-0.1,0.1-0.1,0.1l0,0l0,0l0,0l0,0l0,0
			l0,0l0,0l0,0l0,0l0,0l0,0l0,0l0,0l0,0l0,0l0,0l0,0l0,0l0,0l0,0l0,0l0,0l0,0l0,0l0,0l0,0l0,0l0,0l0,0l0,0l0,0l0,0l0,0l0,0l0,0l0,0
			l0,0l0,0l0,0l0,0l0,0l0,0l0,0l0,0l0,0l0,0l0,0l0,0l0,0l0,0l0,0l0,0l0,0l0,0l0,0l0,0l0,0l0,0l0,0l0,0l0,0l0,0l0,0l0,0l0,0l0,0l0,0
			l0,0l0,0l0,0l0,0l0,0l-4.6,2.6l2,3.5l5.2-3L700.5,484.8L700.5,484.8L700.5,484.8z M690.1,490.8l-5.1,3l0,0l0,0l0,0l0,0l0,0l0,0
			l0,0l0,0l0,0l0,0l0,0l0,0l0,0l0,0l0,0l0,0l0,0l0,0l0,0l0,0l0,0l0,0l0,0l0,0l0,0l0,0l0,0l0,0l0,0l0,0l0,0l0,0l0,0l0,0l0,0l0,0l0,0
			l0,0l0,0l0,0l0,0l0,0l0,0l0,0l0,0l0,0l0,0l0,0l0,0l0,0l0,0l0,0l0,0l0,0l2,3.5l5.2-3L690.1,490.8L690.1,490.8z M679.7,496.8l-5.2,3
			l2,3.5l5.2-3L679.7,496.8L679.7,496.8z M669.3,502.8l-5.2,3l2,3.5l5.2-3L669.3,502.8L669.3,502.8z M658.9,508.8l-2.7,1.6l0,0l0,0
			l0,0l0,0l0,0l0,0c-1.3,0.7-2.5,1.4-2.5,1.4l2,3.5l5.2-3L658.9,508.8L658.9,508.8z M648.5,514.8l-5.2,3l2,3.5l5.2-3L648.5,514.8
			L648.5,514.8z M639.9,519.7l-4,2.3l0,0l4,2.3l0.2-0.1l-0.7-1.3l1.5-2.6L639.9,519.7L639.9,519.7z M646.1,523.3l-2,3.5l5.2,3l2-3.5
			L646.1,523.3L646.1,523.3z M656.5,529.3l-2,3.5l3.4,2l0,0l0,0l0,0l0,0l0,0l0,0c0,0,0,0,0.1,0l0,0c0.9,0.5,1.6,0.9,1.6,0.9l2-3.5
			L656.5,529.3L656.5,529.3z M666.9,535.3l-2,3.5l5.2,3l2-3.5L666.9,535.3L666.9,535.3z M677.3,541.3l-2,3.5l5.2,3l2-3.5
			L677.3,541.3L677.3,541.3z M687.7,547.3l-2,3.5l5.1,3l0,0l0,0l0,0l0,0l2-3.5L687.7,547.3L687.7,547.3z M698.1,553.3l-2,3.5
			l4.4,2.6l0,0l0,0l0,0l0,0l0,0l0,0l0,0l0,0l0,0l0,0l0,0l0,0l0,0l0,0l0,0l0,0l0,0l0,0l0,0l0,0l0,0l0,0l0,0l0,0l0,0l0,0l0,0l0,0l0,0
			l0,0l0,0l0,0l0,0l0,0l0,0l0,0l0,0l0,0h0.1l0,0l0.5-0.3l-0.3-0.4l1.5-2.6l0,0l0,0l0,0L698.1,553.3L698.1,553.3z M709.6,549.4
			l-5.2,3l2,3.5l1.2-0.7l0,0l0,0l0,0l0,0l0,0l0,0l0,0l0,0l0,0l0,0c0,0,0,0,0.1,0l0,0c1.5-0.9,3.8-2.2,3.8-2.2L709.6,549.4
			L709.6,549.4z M720,543.4l-5.2,3l2,3.5l5.2-3L720,543.4L720,543.4z M730.4,537.4l-5.2,3l2,3.5l5.2-3L730.4,537.4L730.4,537.4z
			 M740.8,531.4l-5.2,3l2,3.5l5.2-3L740.8,531.4L740.8,531.4z M751.2,525.4l-5.2,3l2,3.5l5.2-3L751.2,525.4L751.2,525.4z
			 M756.1,516.9l-2,3.5l3,1.7l-0.6,0.4l2,3.5l5.2-3l-1.4-2.5L756.1,516.9L756.1,516.9z M745.7,510.9l-2,3.5l5.2,3l2-3.5
			c0,0-0.2-0.1-0.5-0.3l0,0c0,0,0,0-0.1,0l0,0l0,0l0,0l0,0l0,0l0,0l0,0l0,0l0,0l0,0l0,0l0,0l0,0l0,0l0,0l0,0L745.7,510.9
			L745.7,510.9z M735.3,504.9l-2,3.5l5.2,3l2-3.5l-0.9-0.5l0,0l0,0l0,0l0,0l0,0l0,0l0,0l0,0l0,0l0,0l0,0l0,0l0,0l0,0l0,0l0,0l0,0
			l0,0l0,0l0,0l0,0l0,0l0,0l0,0l0,0l0,0l0,0l0,0l0,0l0,0C737.7,506.3,735.3,504.9,735.3,504.9L735.3,504.9z M724.9,498.9l-2,3.5
			l5.2,3l2-3.5L724.9,498.9L724.9,498.9z M714.5,492.9l-2,3.5l5.2,3l2-3.5c0,0-1.1-0.7-2.4-1.4l0,0c0,0,0,0-0.1,0l0,0l0,0l0,0l0,0
			L714.5,492.9L714.5,492.9z M704.1,486.9l-2,3.5l5.2,3l2-3.5L704.1,486.9L704.1,486.9z"/>
	</g>
	<g>
		<path class="st5" d="M628.5,444.8L628.5,444.8L628.5,444.8c-0.1,0.1-0.1,0.1-0.2,0.1l0,0l0,0l0,0c0,0,0,0-0.1,0l0,0l0,0l0,0l0,0
			l0,0l0,0l0,0l0,0l0,0l0,0l0,0l0,0l0,0l0,0l0,0l0,0l0,0l0,0l0,0l0,0l0,0l0,0l0,0l0,0l0,0l0,0l0,0l0,0l0,0l0,0l0,0l0,0l0,0l0,0l0,0
			l0,0l0,0l0,0l0,0l0,0l0,0l0,0l0,0l0,0l0,0l0,0l0,0l0,0l0,0l0,0l0,0l0,0l0,0l0,0l0,0l0,0l0,0l0,0l0,0l0,0l0,0l0,0h-0.1l0,0
			l-4.4,2.6l2,3.5l5.2-3L628.5,444.8L628.5,444.8L628.5,444.8z M618.2,450.8l-3.5,2l0,0l0,0l0,0l0,0l0,0l0,0l0,0l0,0l0,0l0,0l0,0
			l0,0l0,0l0,0c0,0,0,0-0.1,0l0,0c-0.9,0.5-1.5,0.9-1.5,0.9l2,3.5l5.2-3L618.2,450.8L618.2,450.8z M607.8,456.8l-5.2,3l2,3.5l5.2-3
			L607.8,456.8L607.8,456.8z M597.4,462.8l-3.8,2.2l0,0l0,0l0,0l0,0c0,0,0,0-0.1,0l0,0l0,0l0,0c-0.7,0.4-1.2,0.7-1.2,0.7l2,3.5
			l5.2-3L597.4,462.8L597.4,462.8z M587,468.8l-5.2,3l2,3.5l5.2-3L587,468.8L587,468.8z M576.6,474.8l-5.2,3l2,3.5l5.2-3
			L576.6,474.8L576.6,474.8z M568,479.8l-4,2.3l0,0l0,0l0,0l0,0l0,0l0,0l0,0l0,0l4,2.3l0.2-0.1l-0.7-1.3l1.5-2.6L568,479.8
			L568,479.8z M574.2,483.3l-2,3.5l5.2,3l2-3.5L574.2,483.3L574.2,483.3z M584.6,489.3l-2,3.5l5.2,3l2-3.5L584.6,489.3L584.6,489.3z
			 M595,495.3l-2,3.5l5.2,3l2-3.5L595,495.3L595,495.3z M605.3,501.3l-2,3.5l2.5,1.4l0,0l0,0l0,0l0,0l0,0l0,0
			c1.3,0.8,2.7,1.5,2.7,1.5l2-3.5L605.3,501.3L605.3,501.3z M615.7,507.3l-2,3.5l5.2,3l2-3.5L615.7,507.3L615.7,507.3z M626.1,513.3
			l-2,3.5l3.5,2l0,0l0,0l0,0h0.1l0,0l0,0l0,0l0,0l0,0l0,0l0,0l0,0l0,0l0,0l0,0l0,0l0,0l0,0l0,0l0,0l0,0l0,0l0,0l0,0c0,0,0,0,0.1,0
			l0,0c0,0,0,0,0.1,0l0,0c0.1,0,0.2,0.1,0.2,0.1l0,0c0.1,0.1,0.2,0.1,0.2,0.1l0,0l0.8-0.4l-0.3-0.4l1.5-2.6l0,0l0,0l0,0L626.1,513.3
			L626.1,513.3z M637.7,509.4l-5.2,3l2,3.5l5.2-3L637.7,509.4L637.7,509.4z M648.1,503.4l-5.2,3l2,3.5l3.2-1.9l0,0l0,0l0,0l0,0l0,0
			l0,0l0,0l0,0l0,0l0,0l0,0l0,0l0,0l0,0l0,0l0,0c1-0.6,1.8-1.1,1.8-1.1L648.1,503.4L648.1,503.4z M658.5,497.4l-5.2,3l2,3.5
			c0,0,0.3-0.2,0.8-0.5l0,0c0,0,0.1,0,0.1-0.1l0,0c0,0,0.1,0,0.1-0.1l0,0c0,0,0.1,0,0.1-0.1l0,0l0,0l0,0l0,0l0,0l0,0l0,0l0,0l0,0
			l0,0l0,0l0,0l0,0l0,0l0,0l0,0l0,0l0,0l0,0l0,0l0,0l0,0l0,0l0,0l0,0l0,0l0,0l0,0l0,0l0,0l0,0l0,0l0,0l0,0l0,0l0,0l0,0l0,0l0,0l0,0
			l0,0l0,0l0,0l0,0l0,0l0,0l0,0l0,0l0,0l0,0l0,0l0,0l0,0l0,0l0,0l0,0l0,0l0,0l0,0l0,0l3.7-2.1L658.5,497.4L658.5,497.4z
			 M668.9,491.4l-5.2,3l2,3.5l5.2-3L668.9,491.4L668.9,491.4z M679.3,485.4l-5.2,3l2,3.5c0,0,1.6-0.9,3.1-1.8l0,0c0,0,0.1,0,0.1-0.1
			l0,0c0,0,0.1,0,0.1-0.1l0,0l0,0l0,0l0,0l0,0l0,0l0,0l0,0l0,0l0,0l0,0l0,0l0,0l0,0l0,0l0,0l0,0l0,0l0,0l0,0l0,0l0,0l0,0l0,0
			l0.1-0.1l0,0l0,0l0,0l0,0l0,0l0,0l0,0l0,0l0,0l0,0l0,0l0,0l0,0l0,0l0,0l0,0l0,0l0,0l0,0l1.5-0.8L679.3,485.4L679.3,485.4z
			 M684.2,476.9l-2,3.5l3,1.7l-0.6,0.4l2,3.5l5.2-3l-1.4-2.5l-1.1-0.7l0,0C688.1,479.2,684.2,476.9,684.2,476.9L684.2,476.9z
			 M673.8,470.9l-2,3.5l5.2,3l2-3.5L673.8,470.9L673.8,470.9z M663.4,464.9l-2,3.5l5.2,3l2-3.5L663.4,464.9L663.4,464.9z M653,458.9
			l-2,3.5l5.2,3l2-3.5L653,458.9L653,458.9z M642.6,452.9l-2,3.5l5.2,3l2-3.5L642.6,452.9L642.6,452.9z M632.2,446.9l-2,3.5l5.2,3
			l2-3.5L632.2,446.9L632.2,446.9z"/>
	</g>
	<g>
		<g>
			<polygon class="st6" points="565.3,144.3 700.4,66.8 835.3,144.3 700.3,221.9 			"/>
			<polygon class="st6" points="835.3,144.3 700.3,221.9 700.3,296.4 835.3,218.9 			"/>
		</g>
		<polygon class="st6" points="565.3,144.3 700.3,221.9 700.3,296.4 565.3,218.9 		"/>
	</g>
	<g>
		<g>
			<polygon class="st6" points="706.3,224.9 841.4,147.3 976.3,224.9 841.3,302.4 			"/>
			<polygon class="st6" points="976.3,224.9 841.3,302.4 841.3,376.9 976.3,299.4 			"/>
		</g>
		<polygon class="st6" points="706.3,224.9 841.3,302.4 841.3,376.9 706.3,299.4 		"/>
	</g>
	<g>
		<polygon class="st6" points="623.7,184.6 483.7,265.5 483.7,340 623.7,259.1 		"/>
		<polygon class="st6" points="694.2,224.9 559.3,302.4 559.3,376.9 694.2,299.4 		"/>
		<polygon class="st6" points="494.7,265.1 559.3,302.4 559.3,376.9 494.7,339.7 		"/>
		<polygon class="st6" points="494.7,265.1 629.8,187.6 694.2,224.9 559.3,302.4 		"/>
		<polygon class="st6" points="353.7,265.1 488.6,342.7 488.6,417.2 353.7,339.7 		"/>
		<polygon class="st6" points="623.9,184.6 559.3,147.3 418.5,228 418.2,227.8 353.7,265.1 488.6,342.7 553.1,305.4 483.7,265.5 		
			"/>
		<polygon class="st6" points="553.1,305.4 488.6,342.7 488.6,417.2 553.1,379.9 		"/>
	</g>
	<g>
		<polygon class="st6" points="635.7,265.1 700.3,302.4 700.3,376.9 635.7,339.7 		"/>
		<polygon class="st6" points="764.7,265.1 700.1,302.4 700.1,376.9 764.7,339.7 		"/>
		<polygon class="st6" points="635.7,265.1 700.3,227.8 764.8,265.1 700.3,302.4 		"/>
	</g>
	<g>
		<polygon class="st6" points="706.2,305.4 770.8,342.7 770.8,417.2 706.2,379.9 		"/>
		<polygon class="st6" points="835.2,305.4 770.6,342.7 770.6,417.2 835.2,379.9 		"/>
		<polygon class="st6" points="706.2,305.4 770.8,268.1 835.3,305.4 770.8,342.7 		"/>
	</g>
	<g>
		<polygon class="st6" points="1046.8,265.1 841.3,382.9 841.3,457.5 1046.8,339.7 		"/>
		<polygon class="st6" points="776.7,345.6 982.4,227.8 1046.9,265.1 841.3,382.9 		"/>
		<polygon class="st6" points="776.7,345.6 841.3,382.9 841.3,457.5 776.7,420.2 		"/>
	</g>
	<g>
		<polygon class="st6" points="494.7,345.6 559.2,382.9 559.2,457.5 494.7,420.2 		"/>
		<polygon class="st6" points="623.6,345.6 559,382.9 559,457.5 623.6,420.2 		"/>
		<polygon class="st6" points="494.7,345.6 559.2,308.4 623.8,345.6 559.2,382.9 		"/>
	</g>
	<g>
		<polygon class="st6" points="635.6,426.2 700.2,463.4 700.2,538 635.6,500.7 		"/>
		<polygon class="st6" points="764.6,426.2 700,463.4 700,538 764.6,500.7 		"/>
		<polygon class="st6" points="635.6,426.2 700.2,388.9 764.8,426.2 700.2,463.4 		"/>
	</g>
	<path class="st7" d="M700.4,141.3"/>
	<path class="st7" d="M700.4,66.8"/>
	<path class="st7" d="M841.4,221.9"/>
	<path class="st7" d="M841.4,147.3"/>
	<path class="st7" d="M982.4,302.4"/>
	<path class="st7" d="M982.4,227.8"/>
	<path class="st7" d="M559.3,221.9"/>
	<path class="st7" d="M559.3,147.3"/>
	<path class="st7" d="M700.3,302.4"/>
	<path class="st7" d="M700.4,227.8"/>
	<path class="st7" d="M770.8,342.7"/>
	<path class="st7" d="M770.8,268.1"/>
	<path class="st7" d="M700.2,463.4"/>
	<path class="st7" d="M700.2,388.9"/>
	<path class="st7" d="M559.2,382.9"/>
	<path class="st7" d="M559.2,308.4"/>
	<path class="st7" d="M483.7,265.5"/>
	<path class="st7" d="M353.7,339.7"/>
	<path class="st7" d="M770.9,181.6"/>
	<path class="st7" d="M700.4,141.3"/>
	<path class="st7" d="M700.4,141.3"/>
	<path class="st7" d="M629.8,181.6"/>
	<path class="st7" d="M911.9,262.1"/>
	<path class="st7" d="M841.4,221.9"/>
	<path class="st7" d="M841.4,221.9"/>
	<path class="st7" d="M770.8,262.1"/>
	<path class="st7" d="M483.7,340"/>
	<path class="st7" d="M483.7,265.5"/>
	<g>
		<line class="st3" x1="1284.9" y1="598" x2="1068.4" y2="598"/>
		<g>
			<circle class="st2" cx="1068.8" cy="598" r="7.5"/>
		</g>
	</g>
	<path class="st2" d="M1217.1,286c0-0.7-0.3-1.2-0.8-1.7s-1.4-0.8-2.7-1.2c-1.6-0.4-2.8-0.9-3.7-1.7c-0.9-0.7-1.3-1.7-1.3-2.8
		c0-1.2,0.5-2.1,1.4-2.9c1-0.8,2.2-1.2,3.7-1.2c1.6,0,2.9,0.4,3.9,1.3s1.4,1.9,1.4,3.1v0.1h-1.9c0-0.9-0.3-1.6-0.9-2.1
		s-1.4-0.8-2.5-0.8c-1,0-1.8,0.2-2.3,0.7s-0.8,1-0.8,1.8c0,0.6,0.3,1.2,0.9,1.6s1.5,0.8,2.8,1.1c1.6,0.4,2.8,1,3.6,1.7
		s1.2,1.7,1.2,2.8c0,1.2-0.5,2.2-1.5,2.9s-2.3,1.1-3.9,1.1c-1.5,0-2.8-0.4-4-1.2c-1.1-0.8-1.7-1.9-1.7-3.2v-0.1h1.9
		c0,1,0.4,1.7,1.1,2.2s1.6,0.7,2.6,0.7s1.8-0.2,2.4-0.6S1217.1,286.7,1217.1,286z"/>
	<path class="st2" d="M1232.2,276.4h-4.8v13.3h-2v-13.3h-4.8v-1.6h11.6L1232.2,276.4L1232.2,276.4z"/>
	<path class="st2" d="M1241.3,285.9h-6.3l-1.4,3.8h-2.1l5.8-14.9h1.7l5.7,14.9h-2.1L1241.3,285.9z M1235.7,284.2h5l-2.5-6.8h-0.1
		L1235.7,284.2z"/>
	<path class="st2" d="M1257.4,284.9L1257.4,284.9c0,1.5-0.4,2.6-1.5,3.6c-1,0.9-2.3,1.4-4,1.4s-3.1-0.6-4.1-1.8
		c-1.1-1.2-1.6-2.7-1.6-4.6v-2.7c0-1.8,0.5-3.4,1.6-4.6s2.4-1.8,4.1-1.8s3,0.4,4,1.3s1.5,2.1,1.5,3.6v0.1h-1.9c0-1-0.3-1.9-0.9-2.5
		s-1.5-0.9-2.6-0.9s-2,0.5-2.7,1.4s-1,2-1,3.4v2.7c0,1.4,0.3,2.5,1,3.4s1.6,1.4,2.7,1.4s2-0.3,2.6-0.9s0.9-1.4,0.9-2.5H1257.4z"/>
	<path class="st2" d="M1263.9,283h-1.7v6.7h-2v-14.9h2v6.6h1.6l5.3-6.6h2.2v0.1l-5.8,7.2l6.2,7.7v0.1h-2.4L1263.9,283z"/>
	<path class="st2" d="M1281.8,286c0-0.7-0.3-1.2-0.8-1.7s-1.4-0.8-2.7-1.2c-1.6-0.4-2.8-0.9-3.7-1.7c-0.9-0.7-1.3-1.7-1.3-2.8
		c0-1.2,0.5-2.1,1.4-2.9c1-0.8,2.2-1.2,3.7-1.2c1.6,0,2.9,0.4,3.9,1.3s1.4,1.9,1.4,3.1v0.1h-1.9c0-0.9-0.3-1.6-0.9-2.1
		s-1.4-0.8-2.5-0.8c-1,0-1.8,0.2-2.3,0.7s-0.8,1-0.8,1.8c0,0.6,0.3,1.2,0.9,1.6s1.5,0.8,2.8,1.1c1.6,0.4,2.8,1,3.6,1.7
		s1.2,1.7,1.2,2.8c0,1.2-0.5,2.2-1.5,2.9s-2.3,1.1-3.9,1.1c-1.5,0-2.8-0.4-4-1.2c-1.1-0.8-1.7-1.9-1.7-3.2v-0.1h1.9
		c0,1,0.4,1.7,1.1,2.2s1.6,0.7,2.6,0.7s1.8-0.2,2.4-0.6S1281.8,286.7,1281.8,286z"/>
	<g>
		<line class="st3" x1="1284.9" y1="296.4" x2="1068.4" y2="296.4"/>
		<g>
			<circle class="st2" cx="1068.8" cy="296.4" r="7.5"/>
		</g>
	</g>
	<g>
		<path class="st2" d="M1179,434.8v6h-2v-14.9h5.7c1.6,0,2.8,0.4,3.7,1.2c0.9,0.8,1.3,1.9,1.3,3.2c0,1.4-0.4,2.4-1.3,3.3
			c-0.9,0.8-2.1,1.2-3.7,1.2L1179,434.8L1179,434.8z M1179,433.2h3.7c1,0,1.8-0.3,2.3-0.8s0.7-1.2,0.7-2.1s-0.3-1.5-0.8-2.1
			s-1.3-0.8-2.3-0.8h-3.7v5.8H1179z"/>
		<path class="st2" d="M1192.4,439.2h7.1v1.6h-9.1v-14.9h2V439.2z"/>
		<path class="st2" d="M1210,436.9h-6.3l-1.4,3.8h-2.1l5.8-14.9h1.7l5.7,14.9h-2.1L1210,436.9z M1204.4,435.2h5l-2.5-6.8h-0.1
			L1204.4,435.2z"/>
		<path class="st2" d="M1225.6,427.4h-4.8v13.3h-2v-13.3h-4.8v-1.6h11.6L1225.6,427.4L1225.6,427.4z"/>
		<path class="st2" d="M1236.7,434.2h-6.8v6.6h-2v-14.9h9.9v1.6h-7.9v5.1h6.8V434.2z"/>
		<path class="st2" d="M1251.4,434.6c0,1.8-0.6,3.3-1.7,4.5s-2.6,1.8-4.4,1.8c-1.7,0-3.2-0.6-4.3-1.8c-1.1-1.2-1.6-2.7-1.6-4.5V432
			c0-1.8,0.5-3.3,1.6-4.5s2.5-1.8,4.3-1.8s3.3,0.6,4.4,1.8c1.1,1.2,1.7,2.7,1.7,4.5V434.6z M1249.3,432c0-1.4-0.4-2.5-1.1-3.4
			s-1.7-1.3-3-1.3c-1.2,0-2.1,0.4-2.8,1.3c-0.7,0.9-1.1,2-1.1,3.4v2.7c0,1.4,0.4,2.5,1.1,3.4s1.6,1.3,2.8,1.3c1.2,0,2.2-0.4,3-1.3
			c0.7-0.9,1.1-2,1.1-3.4V432z"/>
		<path class="st2" d="M1256.4,434.3v6.5h-2v-14.9h5.4c1.6,0,2.9,0.4,3.7,1.1s1.3,1.8,1.3,3.2c0,0.8-0.2,1.4-0.6,2s-1,1-1.7,1.4
			c0.8,0.3,1.4,0.7,1.8,1.3c0.4,0.6,0.5,1.3,0.5,2.2v1.4c0,0.5,0.1,0.9,0.2,1.3s0.3,0.7,0.5,0.9v0.2h-2.1c-0.3-0.2-0.4-0.6-0.5-1
			s-0.1-0.9-0.1-1.4V437c0-0.8-0.2-1.5-0.7-1.9s-1.1-0.7-1.9-0.7h-3.8L1256.4,434.3L1256.4,434.3z M1256.4,432.7h3.2
			c1.1,0,2-0.2,2.5-0.6s0.8-1.1,0.8-2c0-0.8-0.2-1.5-0.7-1.9c-0.5-0.5-1.2-0.7-2.3-0.7h-3.4L1256.4,432.7L1256.4,432.7z"/>
		<path class="st2" d="M1270.9,425.9l4.8,12.1h0.1l4.8-12.1h2.6v14.9h-2v-5.9l0.2-6.1h-0.1l-4.8,12h-1.3l-4.8-12h-0.1l0.2,6v5.9h-2
			v-14.9h2.4L1270.9,425.9L1270.9,425.9z"/>
	</g>
	<g>
		<line class="st3" x1="1284.9" y1="448.6" x2="1094.6" y2="448.6"/>
		<g>
			<circle class="st2" cx="1095" cy="448.6" r="7.5"/>
		</g>
	</g>
	<g>
		<path class="st2" d="M1108.5,590.8h-2l-7.2-11.7h-0.1v11.6h-2v-15.1h2l7.2,11.6h0.1v-11.6h2V590.8z"/>
		<path class="st2" d="M1123.6,584.6c0,1.8-0.6,3.4-1.7,4.6c-1.1,1.2-2.6,1.8-4.4,1.8s-3.2-0.6-4.3-1.8s-1.6-2.7-1.6-4.6v-2.7
			c0-1.8,0.5-3.4,1.6-4.6c1.1-1.2,2.5-1.8,4.3-1.8s3.3,0.6,4.4,1.8s1.7,2.7,1.7,4.6V584.6z M1121.6,581.9c0-1.4-0.4-2.5-1.1-3.4
			s-1.7-1.3-3-1.3c-1.2,0-2.1,0.4-2.8,1.3c-0.7,0.9-1.1,2-1.1,3.4v2.7c0,1.4,0.4,2.5,1.1,3.4s1.6,1.3,2.8,1.3c1.3,0,2.3-0.4,3-1.3
			s1.1-2,1.1-3.4V581.9z"/>
		<path class="st2" d="M1126.6,590.8v-15.1h4.6c2,0,3.5,0.6,4.7,1.8s1.8,2.8,1.8,4.7v2.1c0,1.9-0.6,3.5-1.8,4.7
			c-1.2,1.2-2.8,1.8-4.7,1.8H1126.6z M1128.6,577.3v11.9h2.6c1.4,0,2.5-0.5,3.3-1.4s1.2-2.1,1.2-3.5v-2.1c0-1.4-0.4-2.6-1.2-3.5
			c-0.8-0.9-1.9-1.4-3.3-1.4H1128.6z"/>
		<path class="st2" d="M1149.4,583.8h-6.9v5.4h7.9v1.6h-10v-15.1h9.8v1.6h-7.8v4.9h6.9L1149.4,583.8L1149.4,583.8z"/>
		<path class="st2" d="M1161,587c0-0.7-0.3-1.3-0.8-1.7c-0.5-0.5-1.4-0.9-2.7-1.2c-1.6-0.4-2.8-0.9-3.7-1.7
			c-0.9-0.7-1.3-1.7-1.3-2.8c0-1.2,0.5-2.2,1.4-2.9c1-0.8,2.2-1.2,3.7-1.2c1.6,0,3,0.5,3.9,1.4c1,0.9,1.4,2,1.4,3.1v0.1h-1.9
			c0-0.9-0.3-1.6-0.9-2.1s-1.4-0.8-2.5-0.8c-1,0-1.8,0.2-2.3,0.7s-0.8,1.1-0.8,1.8s0.3,1.2,0.9,1.6c0.6,0.4,1.5,0.8,2.8,1.2
			c1.6,0.4,2.8,1,3.6,1.7c0.8,0.8,1.2,1.7,1.2,2.8c0,1.2-0.5,2.2-1.5,2.9s-2.3,1.1-3.9,1.1c-1.5,0-2.8-0.4-4-1.2s-1.7-1.9-1.7-3.3
			v-0.1h1.9c0,1,0.4,1.7,1.1,2.2s1.6,0.8,2.6,0.8s1.8-0.2,2.4-0.6C1160.7,588.3,1161,587.7,1161,587z"/>
		<path class="st2" d="M1170.1,586.7c0-0.8,0.2-1.6,0.7-2.2c0.5-0.6,1.2-1.3,2.2-1.9c-0.5-0.7-0.9-1.3-1.2-1.8s-0.4-1.1-0.4-1.7
			c0-1.2,0.3-2.1,1-2.7s1.6-0.9,2.8-0.9c1.1,0,2,0.3,2.6,0.9c0.7,0.6,1,1.4,1,2.3c0,0.7-0.2,1.3-0.5,1.8s-0.9,1-1.6,1.5l-1.1,0.8
			l3.5,4.2c0.3-0.4,0.5-0.9,0.7-1.5c0.2-0.5,0.2-1.1,0.2-1.7h1.8c0,0.9-0.1,1.8-0.4,2.5s-0.7,1.5-1.2,2.1l1.9,2.3v0.1h-2.4l-0.9-1.1
			c-0.5,0.4-1.2,0.7-1.8,0.9c-0.7,0.2-1.4,0.3-2.1,0.3c-1.5,0-2.7-0.4-3.6-1.2C1170.5,589,1170.1,588,1170.1,586.7z M1175,589.4
			c0.5,0,1-0.1,1.5-0.3s0.9-0.4,1.4-0.7l-3.7-4.5l-0.4,0.3c-0.6,0.5-1,0.9-1.2,1.3c-0.2,0.4-0.3,0.8-0.3,1.2c0,0.8,0.2,1.4,0.7,1.9
			C1173.3,589.1,1174,589.4,1175,589.4z M1173.4,579.1c0,0.4,0.1,0.7,0.3,1.1c0.2,0.4,0.5,0.8,0.8,1.3l1.4-1
			c0.4-0.3,0.7-0.5,0.8-0.9c0.1-0.3,0.2-0.6,0.2-1s-0.2-0.8-0.5-1.1s-0.8-0.5-1.3-0.5c-0.6,0-1,0.2-1.3,0.6
			C1173.6,578.1,1173.4,578.6,1173.4,579.1z"/>
		<path class="st2" d="M1194.1,587l0.3,1.2h0.1l0.3-1.2l3.9-11.3h2.2l-5.6,15.1h-1.7l-5.6-15.1h2.2L1194.1,587z"/>
		<path class="st2" d="M1214.3,584.6c0,1.8-0.6,3.4-1.7,4.6c-1.1,1.2-2.6,1.8-4.4,1.8s-3.2-0.6-4.3-1.8s-1.6-2.7-1.6-4.6v-2.7
			c0-1.8,0.5-3.4,1.6-4.6c1.1-1.2,2.5-1.8,4.3-1.8s3.3,0.6,4.4,1.8s1.7,2.7,1.7,4.6V584.6z M1212.2,581.9c0-1.4-0.4-2.5-1.1-3.4
			s-1.7-1.3-3-1.3c-1.2,0-2.1,0.4-2.8,1.3c-0.7,0.9-1.1,2-1.1,3.4v2.7c0,1.4,0.4,2.5,1.1,3.4s1.6,1.3,2.8,1.3c1.3,0,2.3-0.4,3-1.3
			s1.1-2,1.1-3.4V581.9z"/>
		<path class="st2" d="M1219.3,589.2h7.1v1.6h-9.1v-15.1h2V589.2z"/>
		<path class="st2" d="M1239.4,575.7v10.2c0,1.6-0.5,2.9-1.6,3.8c-1.1,0.9-2.4,1.3-4.2,1.3c-1.6,0-3-0.4-4-1.3s-1.5-2.1-1.5-3.8
			v-10.2h2v10.2c0,1.1,0.3,2,1,2.6c0.6,0.6,1.5,0.9,2.6,0.9s2-0.3,2.7-0.9c0.7-0.6,1-1.5,1-2.6v-10.2H1239.4z"/>
		<path class="st2" d="M1245.3,575.7l4.8,12.2h0.1l4.8-12.2h2.6v15.1h-2v-6l0.2-6.1h-0.1l-4.9,12.1h-1.4l-4.8-12.1h-0.1l0.2,6.1v6
			h-2v-15.1H1245.3z"/>
		<path class="st2" d="M1270.2,583.8h-6.9v5.4h7.9v1.6h-10v-15.1h9.8v1.6h-7.8v4.9h6.9L1270.2,583.8L1270.2,583.8z"/>
		<path class="st2" d="M1281.8,587c0-0.7-0.3-1.3-0.8-1.7c-0.5-0.5-1.4-0.9-2.7-1.2c-1.6-0.4-2.8-0.9-3.7-1.7
			c-0.9-0.7-1.3-1.7-1.3-2.8c0-1.2,0.5-2.2,1.4-2.9c1-0.8,2.2-1.2,3.7-1.2c1.6,0,3,0.5,3.9,1.4c1,0.9,1.4,2,1.4,3.1v0.1h-1.9
			c0-0.9-0.3-1.6-0.9-2.1s-1.4-0.8-2.5-0.8c-1,0-1.8,0.2-2.3,0.7s-0.8,1.1-0.8,1.8s0.3,1.2,0.9,1.6c0.6,0.4,1.5,0.8,2.8,1.2
			c1.6,0.4,2.8,1,3.6,1.7s1.2,1.7,1.2,2.8c0,1.2-0.5,2.2-1.5,2.9s-2.3,1.1-3.9,1.1c-1.5,0-2.8-0.4-4-1.2s-1.7-1.9-1.7-3.3v-0.1h1.9
			c0,1,0.4,1.7,1.1,2.2s1.6,0.8,2.6,0.8s1.8-0.2,2.4-0.6C1281.5,588.3,1281.8,587.7,1281.8,587z"/>
	</g>
</g>
</svg>
